<?xml version="1.0" standalone="no"?>
<!DOCTYPE svg PUBLIC "-//W3C//DTD SVG 20010904//EN"
 "http://www.w3.org/TR/2001/REC-SVG-20010904/DTD/svg10.dtd">
<svg version="1.0" xmlns="http://www.w3.org/2000/svg"
 width="500.000000pt" height="500.000000pt" viewBox="0 0 500.000000 500.000000"
 preserveAspectRatio="xMidYMid meet">
<metadata>
Created by potrace 1.14, written by Peter Selinger 2001-2017
</metadata>
<g transform="translate(0.000000,500.000000) scale(0.100000,-0.100000)"
fill="#000000" stroke="none">
<path d="M3523 3725 c-15 -33 -28 -65 -28 -72 0 -7 -6 -18 -13 -25 -6 -6 -12
-20 -12 -30 0 -10 -4 -18 -10 -18 -5 0 -10 -6 -10 -13 0 -15 -72 -186 -96
-229 -8 -15 -15 -30 -14 -33 2 -25 -2 -35 -10 -30 -5 3 -10 -3 -10 -14 0 -12
-4 -21 -9 -21 -5 0 -8 -8 -7 -17 2 -10 -5 -31 -16 -48 -10 -16 -18 -38 -18
-47 0 -10 -4 -18 -10 -18 -5 0 -10 -9 -10 -20 0 -11 -5 -20 -10 -20 -6 0 -9
-3 -8 -7 4 -14 -23 -83 -32 -83 -5 0 -7 -7 -4 -15 4 -8 1 -15 -5 -15 -6 0 -10
-3 -10 -7 1 -5 -3 -21 -10 -38 -6 -16 -12 -34 -13 -40 -1 -5 -8 -16 -15 -23
-7 -8 -11 -18 -8 -23 4 -5 2 -9 -3 -9 -5 0 -9 -6 -9 -12 0 -7 -14 -42 -30 -78
-27 -57 -42 -94 -48 -110 -1 -3 -8 -18 -15 -35 -7 -16 -14 -32 -16 -35 -1 -3
-5 -15 -9 -27 -4 -13 -12 -23 -18 -23 -6 0 -8 -3 -4 -6 3 -4 -2 -23 -13 -44
-11 -21 -16 -40 -13 -44 4 -3 1 -6 -5 -6 -7 0 -11 -3 -10 -7 1 -5 -4 -19 -12
-33 -7 -14 -12 -25 -11 -25 4 0 -19 -59 -39 -97 -10 -20 -16 -39 -13 -42 4 -3
0 -6 -7 -6 -7 0 -10 -3 -7 -7 4 -3 -1 -15 -10 -26 -10 -11 -13 -17 -6 -13 7 4
-1 -18 -17 -49 -16 -30 -29 -56 -28 -58 0 -1 -7 -19 -16 -41 -9 -21 -16 -42
-16 -47 0 -5 -5 -9 -12 -9 -6 0 -9 -3 -5 -6 3 -4 -1 -20 -9 -36 -8 -16 -12
-33 -9 -38 3 -6 2 -10 -3 -10 -10 0 -36 -58 -33 -72 0 -5 -3 -8 -9 -8 -5 0
-10 -9 -10 -19 0 -11 -4 -23 -10 -26 -5 -3 -10 -15 -10 -26 0 -10 -5 -19 -11
-19 -6 0 -9 -7 -5 -15 3 -8 1 -15 -4 -15 -6 0 -10 -7 -10 -15 0 -9 -7 -27 -16
-40 -9 -13 -13 -28 -10 -34 3 -5 -1 -12 -10 -15 -8 -3 -13 -10 -10 -14 3 -5
-3 -22 -13 -39 -10 -16 -22 -44 -26 -61 -3 -18 -11 -34 -16 -37 -15 -10 -11
-53 6 -51 8 1 18 5 21 9 4 4 12 7 18 7 6 0 4 -5 -4 -10 -13 -8 -13 -10 1 -10
9 0 19 3 23 7 10 11 37 12 30 2 -6 -10 39 -12 50 -2 10 11 37 12 30 2 -3 -5
10 -9 28 -9 25 0 29 3 18 10 -9 6 -10 10 -3 10 6 0 15 -5 18 -10 5 -8 11 -7
21 1 10 8 14 8 14 0 0 -6 9 -11 21 -11 13 0 18 4 13 13 -5 7 -2 7 10 -2 15
-13 19 -12 35 5 14 15 73 142 76 164 1 3 12 27 25 54 13 26 23 55 23 62 0 8 4
14 9 14 5 0 6 5 3 10 -3 6 -1 10 4 10 6 0 11 9 11 21 0 13 4 18 12 13 7 -4 8
-3 4 5 -4 6 -2 18 4 26 7 8 9 15 5 15 -4 0 -1 10 7 23 8 12 21 39 27 60 7 20
16 35 19 33 4 -2 8 7 9 21 0 14 7 29 15 34 7 5 9 9 4 9 -5 0 -4 6 2 13 6 6 11
14 11 17 2 21 25 70 33 70 5 0 7 4 4 9 -3 5 1 21 8 37 8 16 16 36 18 44 2 8 9
21 16 28 6 7 12 21 12 31 0 9 4 21 8 26 5 6 19 37 32 70 13 33 30 69 37 81 7
11 10 24 6 27 -3 4 -1 7 6 7 7 0 9 4 6 10 -3 6 -1 10 6 10 7 0 10 3 6 6 -3 4
3 24 14 46 11 22 22 50 25 61 2 11 9 24 16 29 7 4 9 8 4 8 -6 0 -5 5 2 12 7 7
12 20 12 30 0 10 4 18 10 18 5 0 9 3 9 8 -1 4 0 10 1 15 1 4 3 10 4 15 1 4 15
34 30 67 16 33 29 66 29 73 0 6 4 12 9 12 5 0 6 5 3 10 -3 6 -1 10 4 10 6 0
10 3 9 8 -2 4 6 27 16 52 11 25 19 48 18 53 -1 4 3 7 9 7 5 0 7 5 4 10 -3 6
-1 10 6 10 7 0 9 3 6 7 -4 3 0 17 8 30 9 13 13 23 9 23 -4 0 -1 6 5 14 7 8 14
24 16 37 3 12 10 26 16 29 6 4 11 11 11 16 -1 5 5 23 13 39 17 39 28 68 29 77
1 3 4 10 9 14 4 4 7 15 7 25 0 9 4 19 9 21 5 2 11 12 13 23 1 11 7 23 11 26 5
3 10 12 11 20 2 8 10 30 18 49 27 62 31 75 30 83 -1 4 3 7 8 7 6 0 10 7 10 15
0 8 9 30 20 50 11 20 20 44 20 55 0 11 5 20 10 20 6 0 10 8 10 18 0 10 5 23
12 30 7 7 8 12 3 12 -6 0 -4 4 3 9 7 4 14 18 15 29 1 12 5 22 9 22 4 0 8 8 7
18 0 11 -2 12 -6 4 -4 -10 -8 -10 -19 -1 -11 9 -18 9 -29 -1 -12 -10 -15 -10
-15 0 0 9 -4 9 -17 -1 -12 -10 -15 -11 -9 -1 6 9 1 11 -18 8 -14 -3 -31 -8
-37 -12 -8 -4 -9 -3 -5 4 8 13 -6 17 -18 5 -9 -9 -46 -11 -40 -2 5 9 -37 6
-52 -3 -5 -4 -16 -3 -24 3 -19 11 -33 12 -26 1 3 -5 -1 -9 -9 -9 -8 0 -12 4
-9 8 2 4 -4 7 -15 6 -14 -1 -28 -19 -48 -62z"/>
<path d="M2250 3069 c0 -6 -4 -8 -9 -5 -5 4 -22 1 -38 -6 -15 -6 -34 -10 -42
-9 -7 1 -10 -2 -6 -8 3 -6 0 -11 -8 -11 -36 0 -148 -155 -131 -182 3 -4 1 -8
-3 -8 -5 0 -8 -17 -8 -37 1 -52 -2 -58 -29 -61 -28 -2 -36 17 -41 100 -2 32
-6 62 -10 68 -3 5 0 10 7 10 10 0 10 2 -1 9 -8 6 -15 30 -17 61 -1 28 -5 57
-7 63 -3 9 -77 12 -273 11 -266 -1 -313 -5 -296 -28 5 -6 8 -42 7 -81 -1 -38
4 -76 9 -84 9 -12 8 -13 -3 -6 -11 6 -13 3 -7 -19 4 -18 2 -26 -6 -26 -9 0 -9
-3 -2 -8 5 -4 10 -18 10 -32 l0 -25 116 0 c65 -1 120 -4 124 -7 6 -6 9 -296 4
-323 -2 -6 -1 -12 0 -15 6 -16 4 -60 -3 -60 -4 0 -5 -6 -1 -12 8 -13 7 -145
-1 -159 -3 -4 -1 -10 4 -13 5 -3 6 -21 1 -40 -4 -19 -5 -38 -2 -41 9 -9 8 -55
-1 -55 -4 0 -5 -5 -1 -12 4 -6 7 -26 8 -44 1 -39 1 -40 -174 -39 l-125 1 -5
-131 c-3 -71 -3 -140 -1 -152 l3 -23 502 0 503 0 -1 153 -1 152 -165 0 c-167
0 -193 6 -173 38 9 15 10 47 1 68 -4 8 -3 21 2 29 5 8 4 22 -2 33 -7 14 -7 17
1 13 6 -4 11 -2 11 3 0 6 -5 11 -11 11 -8 0 -8 4 0 14 7 8 8 17 3 20 -10 6 -9
42 0 52 4 3 3 16 -2 28 -4 13 -4 29 1 39 7 12 6 17 -2 17 -8 0 -7 5 2 17 12
15 12 16 -1 8 -12 -7 -13 -6 -3 7 7 8 10 18 6 22 -4 4 -1 11 7 16 8 6 10 10 4
10 -8 0 -10 11 -5 33 5 18 7 40 5 50 -1 9 2 17 7 17 5 0 9 11 9 24 0 14 4 27
10 31 5 3 7 12 4 19 -3 7 2 20 10 29 8 8 12 17 9 21 -4 3 -1 6 6 6 7 0 10 4 6
9 -9 15 74 91 106 98 16 3 29 9 29 12 0 4 27 7 60 7 33 -1 60 -4 60 -9 0 -4 5
-5 10 -2 6 3 10 1 10 -4 0 -6 8 -11 18 -11 28 0 70 -55 78 -100 2 -8 6 -26 10
-39 5 -17 4 -22 -4 -17 -8 5 -10 2 -6 -8 3 -9 11 -16 18 -16 8 0 8 -2 0 -8 -9
-5 -8 -11 2 -20 9 -8 14 -9 14 -2 0 6 5 8 11 5 12 -8 127 -10 135 -3 2 3 23 2
44 -2 22 -4 43 -3 46 1 3 5 12 6 19 1 8 -4 33 -6 55 -4 l40 4 -2 52 c-1 28 -6
57 -11 64 -6 8 -5 12 2 12 7 0 9 5 4 13 -8 13 -11 27 -15 70 -1 15 -5 27 -9
27 -4 0 -6 14 -5 31 1 18 -3 33 -11 36 -7 3 -11 9 -8 13 3 5 1 11 -5 15 -6 4
-8 11 -5 16 4 5 1 9 -4 9 -6 0 -11 9 -11 20 0 10 -8 24 -17 29 -10 6 -15 11
-11 11 17 0 -86 105 -103 105 -6 0 -14 7 -19 15 -5 8 -10 11 -10 7 0 -4 -9 -3
-21 3 -35 19 -61 23 -171 26 -69 2 -108 -1 -108 -7z"/>
</g>
</svg>
